<svg xmlns="http://www.w3.org/2000/svg" viewBox="0 0 360.5 399.5"><path fill="#d8bf95" d="M5.6 395.8C4.7 395.4 3.8 394.5 3.5 393.7C3.2 392.9 3.0 326.5 3.1 198.9L3.2 5.4L4.7 4.2L6.1 3.0L102.7 3.0C164.2 3.0 201.7 3.2 205.8 3.5C215.0 4.2 229.0 7.9 238.0 11.8C253.5 18.7 268.6 31.9 275.7 44.8C276.8 46.7 278.4 49.5 279.3 51.0C281.5 54.6 283.0 58.9 285.4 67.6C287.3 74.5 287.7 76.7 289.0 86.0C289.8 91.5 289.3 104.9 288.0 112.5C286.9 119.0 283.8 129.9 281.7 134.6C279.6 139.2 274.9 147.6 273.0 150.0C272.1 151.1 271.4 152.1 271.5 152.2C271.7 152.3 273.9 153.1 276.5 153.9C289.2 157.9 303.4 165.4 314.0 173.8C319.0 177.7 327.6 186.2 331.6 191.1C339.6 200.9 348.0 217.2 351.9 230.2C356.6 245.9 357.5 253.2 357.5 273.5C357.5 293.8 356.4 301.5 351.3 317.8C341.9 347.1 319.5 371.3 289.5 384.5C282.4 387.6 266.5 392.8 260.3 394.0C247.0 396.5 248.8 396.5 123.8 396.5C24.4 396.5 7.0 396.4 5.6 395.8ZM208.0 364.3C238.9 364.1 240.9 364.0 256.5 360.2C264.5 358.2 267.3 357.3 275.8 353.5C284.5 349.6 289.7 346.4 297.0 340.3C310.4 329.0 319.6 312.2 323.0 293.0C324.4 285.4 324.9 265.3 324.1 257.2C321.8 236.2 314.0 218.5 301.3 205.8C295.6 200.0 290.5 196.1 283.5 192.1C277.5 188.7 276.9 188.4 267.2 185.3C247.0 178.6 243.7 178.2 196.3 178.2C162.8 178.2 161.9 178.3 161.2 179.2C160.6 180.1 160.5 193.6 160.5 272.5L160.5 364.8L170.4 364.6C175.8 364.6 192.7 364.4 208.0 364.3ZM130.4 363.8C130.8 363.3 131.0 337.9 131.0 270.7L131.0 178.2L84.3 178.2C52.5 178.2 37.4 178.4 37.0 178.8C36.7 179.1 36.5 208.2 36.5 271.5C36.5 322.2 36.5 363.9 36.5 364.1C36.5 364.3 57.5 364.5 83.2 364.5C121.7 364.5 130.0 364.4 130.4 363.8ZM129.4 145.7C130.0 145.6 130.6 145.0 130.7 144.4C130.9 143.8 131.1 119.1 131.1 89.6L131.2 36.0L84.7 36.0C48.3 36.0 38.0 36.1 37.3 36.6C36.6 37.2 36.5 41.1 36.5 91.2C36.5 121.0 36.5 145.5 36.5 145.8C36.5 146.3 127.2 146.3 129.4 145.7ZM227.3 145.3C233.4 143.3 243.6 133.9 248.0 126.2C250.1 122.6 253.4 114.7 254.2 111.4C255.7 105.2 256.2 99.2 255.9 90.9C255.5 81.8 255.0 78.6 253.1 72.8C251.5 67.6 247.4 59.4 245.3 57.1C244.4 56.1 243.3 54.7 242.9 54.1C240.9 51.1 233.9 46.0 227.9 43.1C215.6 37.1 208.1 36.0 181.1 36.0C165.3 36.0 162.6 36.1 161.6 36.8L160.5 37.6L160.5 91.9L160.5 146.2L192.9 146.1C218.4 146.0 225.7 145.8 227.3 145.3Z"/></svg>